<svg xmlns="http://www.w3.org/2000/svg" viewBox="0 0 642.79 424.08"><defs><style>.cls-1{fill:#fff;}</style></defs><title>AddFolderIcon</title><g id="Layer_2" data-name="Layer 2"><g id="Layer_2-2" data-name="Layer 2"><rect class="cls-1" y="390.92" width="642.79" height="33.16" rx="16.58" ry="16.58"/><path class="cls-1" d="M16.58,265.92A16.63,16.63,0,0,0,0,282.5H0a16.63,16.63,0,0,0,16.58,16.58H274V265.92Z"/><path class="cls-1" d="M626.21,265.92H370v33.16H626.21a16.63,16.63,0,0,0,16.58-16.58h0A16.63,16.63,0,0,0,626.21,265.92Z"/><path class="cls-1" d="M461.87,140.92H336.53V16.58a16.58,16.58,0,0,0-33.16,0V140.92H180a16.63,16.63,0,0,0-16.58,16.58h0A16.63,16.63,0,0,0,180,174.08H303.37V298.42a16.58,16.58,0,0,0,33.16,0V174.08H461.87a16.63,16.63,0,0,0,16.58-16.58h0A16.63,16.63,0,0,0,461.87,140.92Z"/><path class="cls-1" d="M15.54,140.92C7,140.92,0,148.38,0,157.5H0c0,9.12,7,16.58,15.54,16.58H134V140.92Z"/><path class="cls-1" d="M627.14,140.92H507v33.16H627.14c8.61,0,15.65-7.46,15.65-16.58h0C642.79,148.38,635.75,140.92,627.14,140.92Z"/></g></g></svg>