<svg xmlns="http://www.w3.org/2000/svg" viewBox="0 0 464.2 464.2"><defs><style>.cls-1{fill:#fff;}</style></defs><title>DismissIcon_2</title><g id="Layer_2" data-name="Layer 2"><g id="Layer_2-2" data-name="Layer 2"><path class="cls-1" d="M255.55,232.1,459.36,28.28a16.62,16.62,0,0,0,0-23.44h0a16.63,16.63,0,0,0-23.45,0L232.1,208.65,28.28,4.84a16.62,16.62,0,0,0-23.44,0h0a16.62,16.62,0,0,0,0,23.44L208.65,232.1,4.84,435.91a16.58,16.58,0,0,0,23.44,23.45L232.1,255.55,435.91,459.36a16.63,16.63,0,0,0,23.45,0h0a16.63,16.63,0,0,0,0-23.45Z"/></g></g></svg>